<?xml version="1.0" encoding="UTF-8"?><svg id="Ebene_1" xmlns="http://www.w3.org/2000/svg" xmlns:xlink="http://www.w3.org/1999/xlink" viewBox="0 0 304.89 128.92"><defs><clipPath id="clippath"><rect width="304.89" height="128.92" fill="none"/></clipPath><clipPath id="clippath-1"><rect width="304.89" height="128.92" fill="none"/></clipPath><clipPath id="clippath-2"><rect width="304.89" height="128.92" fill="none"/></clipPath><clipPath id="clippath-3"><rect width="304.89" height="128.92" fill="none"/></clipPath></defs><g clip-path="url(#clippath)"><rect width="304.89" height="128.92" fill="#fff"/></g><g clip-path="url(#clippath-1)"><path d="m36.87,70.12c-.15,0-.45,0-.6-.15-.6-.45-1.35-.75-2.09-.9-.6-.15-1.05-.9-.9-1.5.15-.6.9-1.05,1.5-.9,1.05.3,1.95.75,2.69,1.2.6.45.75,1.2.45,1.65-.3.45-.6.6-1.05.6m4.04,5.09c-.45,0-.9-.3-1.05-.75-.3-.75-.75-1.5-1.05-2.1-.45-.6-.3-1.2.3-1.65.45-.3,1.2-.15,1.65.3.45.75.9,1.65,1.35,2.69.15.6-.15,1.2-.75,1.5h-.45Zm-22.6.6h-.6c-.6-.3-.9-1.05-.6-1.65.45-.9.9-1.65,1.5-2.54.45-.45,1.2-.6,1.8-.15.45.45.6,1.2.15,1.65-.45.6-.9,1.35-1.2,2.09-.3.45-.6.6-1.05.6m23.65,5.99h-.15c-.6,0-1.05-.6-1.05-1.2v-.6c0-.75,0-1.35-.15-1.95,0-.6.45-1.2,1.05-1.35.75,0,1.35.45,1.35,1.05.15.75.15,1.5.15,2.25v.6c0,.75-.6,1.2-1.2,1.2m-24.85.6c-.6,0-1.05-.45-1.2-1.2v-2.84c.15-.6.75-1.05,1.35-1.05.75.15,1.2.6,1.05,1.35v2.4c.15.6-.45,1.2-1.05,1.35h-.15Zm22.75,5.69c-.15,0-.45-.15-.6-.3-.6-.3-.75-1.05-.45-1.65.45-.6.9-1.35,1.2-2.1.15-.6.9-.9,1.5-.75.6.3.9,1.05.75,1.65-.45.9-.9,1.8-1.35,2.54-.3.3-.6.6-1.05.6m-20.36.45c-.45,0-.75-.15-1.05-.6-.45-.75-1.05-1.65-1.35-2.4-.3-.6,0-1.35.6-1.65.6-.3,1.2,0,1.5.6.3.75.75,1.5,1.2,2.1.45.6.3,1.35-.15,1.65-.3.15-.6.3-.75.3m15.42,3.74c-.45,0-.9-.15-1.05-.6-.3-.6,0-1.35.6-1.65.6-.3,1.35-.75,1.95-1.2.6-.45,1.35-.3,1.65.15.45.6.3,1.35-.15,1.65-.75.6-1.65,1.2-2.55,1.65h-.45Zm-10.33.3c-.15,0-.3,0-.45-.15-.9-.3-1.8-.75-2.55-1.35-.6-.45-.6-1.2-.3-1.65.45-.6,1.2-.75,1.65-.3.75.45,1.35.9,2.1,1.2.6.15.9.9.6,1.5-.15.45-.6.75-1.05.75m4.94,1.05c-.45,0-.75,0-1.2-.15-.6,0-1.05-.6-1.05-1.2,0-.75.6-1.2,1.35-1.2.75.15,1.5.15,2.4,0,.6-.15,1.2.45,1.35,1.05,0,.6-.45,1.2-1.05,1.35-.6,0-1.2.15-1.8.15" fill="#007ab5"/><polygon points="29.54 67.57 32.83 70.56 32.83 64.43 29.54 67.57" fill="#007ab5"/><path d="m24.15,73.56c-.3,0-.45-.15-.75-.45s-.15-.9.3-1.2c.6-.45,1.2-.75,1.95-.9.45-.15.9,0,1.05.45.15.6,0,1.05-.45,1.2-.6.15-1.05.45-1.5.75-.15.15-.45.15-.6.15m12.87,3.74c-.3,0-.6-.3-.75-.6-.3-.45-.6-1.05-.9-1.5-.3-.3-.15-.9.15-1.2.45-.3.9-.3,1.2.15.45.6.9,1.2,1.2,1.8.15.45,0,1.05-.45,1.2-.15.15-.3.15-.45.15m-15.42.3h-.15c-.6-.15-.75-.6-.75-1.05.3-.75.45-1.5.75-2.1.3-.45.75-.6,1.2-.3.45.15.6.75.45,1.2-.3.45-.45,1.05-.6,1.65-.15.3-.45.6-.9.6m16.02,4.49h-.15c-.45-.15-.75-.6-.75-1.05.15-.45.15-.9.15-1.35v-.45c0-.45.3-.9.9-.9.45,0,.9.3.9.9v.45c0,.6,0,1.05-.15,1.65-.15.45-.45.75-.9.75m-16.17.3c-.45,0-.75-.15-.9-.6-.15-.75-.15-1.35-.15-2.1,0-.45.3-.9.9-.9.45,0,.9.3.9.9s0,1.05.15,1.65c.15.45-.15.9-.6,1.05h-.3Zm13.92,3.89c-.15,0-.45,0-.6-.15-.3-.45-.3-.9,0-1.35.45-.3.75-.9,1.05-1.35.3-.45.75-.6,1.2-.3.45.3.6.75.3,1.2-.3.6-.75,1.2-1.35,1.8-.15.15-.3.15-.6.15m-11.53.3c-.15,0-.3,0-.6-.15-.45-.6-.9-1.05-1.35-1.65-.3-.45-.15-1.05.3-1.35.3-.15.9-.15,1.2.3.3.45.75.9,1.05,1.35.45.3.45.9.15,1.2-.15.3-.45.3-.75.3m7.33,2.1c-.45,0-.75-.3-.9-.75,0-.45.3-.9.75-1.05.6-.15,1.05-.3,1.65-.6.45-.15.9,0,1.2.45.15.45,0,1.05-.45,1.2-.75.3-1.35.6-2.09.75h-.15Zm-2.99,0h0c-.75-.15-1.5-.3-2.1-.6-.45-.15-.75-.6-.6-1.05.3-.45.75-.75,1.2-.6.6.3,1.05.45,1.65.6.6,0,.9.45.75.9,0,.45-.45.75-.9.75" fill="#87b624"/><polygon points="29.54 71.46 26.99 73.71 26.99 69.22 29.54 71.46" fill="#87b624"/></g><text transform="translate(47.38 78.53)" fill="#397851" font-family="Montserrat-Medium, Montserrat" font-size="7" font-weight="500"><tspan x="0" y="0" letter-spacing="0em">E</tspan><tspan x="4.7" y="0" letter-spacing=".01em">N</tspan><tspan x="10.46" y="0" letter-spacing="0em">E</tspan><tspan x="15.15" y="0" letter-spacing=".02em">R</tspan><tspan x="20.36" y="0" letter-spacing="0em">G</tspan><tspan x="25.82" y="0">Y </tspan><tspan x="32.23" y="0" letter-spacing=".02em">T</tspan><tspan x="36.46" y="0" letter-spacing=".05em">R</tspan><tspan x="41.87" y="0" letter-spacing=".02em">AN</tspan><tspan x="52.93" y="0" letter-spacing=".02em">S</tspan><tspan x="57.41" y="0" letter-spacing=".01em">I</tspan><tspan x="59.67" y="0" letter-spacing=".02em">T</tspan><tspan x="63.9" y="0" letter-spacing=".02em">IO</tspan><tspan x="72.18" y="0">N</tspan></text><text transform="translate(46.6 99.36)" fill="#397851" font-family="Montserrat-SemiBold, Montserrat" font-size="17" font-weight="600"><tspan x="0" y="0" letter-spacing="-.04em">G</tspan><tspan x="12.44" y="0" letter-spacing="-.05em">r</tspan><tspan x="18.82" y="0" letter-spacing="-.03em">e</tspan><tspan x="28.87" y="0" letter-spacing="-.04em">e</tspan><tspan x="38.79" y="0" letter-spacing="-.04em">n</tspan><tspan x="49.78" y="0" letter-spacing="-.04em">I</tspan><tspan x="54.47" y="0" letter-spacing="-.04em">n</tspan><tspan x="65.48" y="0" letter-spacing="-.04em">d</tspan><tspan x="76.43" y="0" letter-spacing="-.03em">u</tspan><tspan x="87.48" y="0" letter-spacing="-.02em">s</tspan><tspan x="95.9" y="0" letter-spacing="-.05em">t</tspan><tspan x="102.32" y="0" letter-spacing="-.05em">r</tspan><tspan x="108.61" y="0" letter-spacing="-.04em">i</tspan><tspan x="112.79" y="0" letter-spacing="-.04em">a</tspan><tspan x="122.36" y="0" letter-spacing="-.03em">l</tspan><tspan x="126.77" y="0" letter-spacing="-.03em">A</tspan><tspan x="139.02" y="0" letter-spacing="-.04em">r</tspan><tspan x="145.4" y="0" letter-spacing="-.04em">e</tspan><tspan x="155.31" y="0" letter-spacing="-.03em">a</tspan><tspan x="165.05" y="0">s</tspan></text><g clip-path="url(#clippath-2)"><line x1="48.29" y1="68.2" x2="288.4" y2="68.2" fill="none" stroke="#397851" stroke-linecap="round" stroke-miterlimit="10" stroke-width=".39"/></g><g clip-path="url(#clippath-3)"><rect x="123.69" y="16.82" width="50.08" height="33.74" fill="#134094"/><path d="m174.3,16.3h-51.13v34.79h51.13V16.3Zm-1.05,33.74h-49.03V17.35h49.03v32.69Z" fill="#fff"/><polygon points="157.6 27.85 157.99 26.61 158.39 27.85 159.68 27.85 158.63 28.6 159.03 29.82 157.99 29.07 156.96 29.82 157.35 28.6 156.3 27.85 157.6 27.85" fill="#ffed00"/><polygon points="148.32 22.5 148.72 21.26 149.12 22.49 150.41 22.49 149.36 23.25 149.75 24.47 148.72 23.72 147.68 24.47 148.08 23.25 147.03 22.49 148.32 22.5" fill="#ffed00"/><polygon points="136.32 33.21 137.62 33.21 138.01 31.97 138.41 33.21 139.7 33.21 138.65 33.96 139.05 35.18 138.01 34.43 136.98 35.18 137.37 33.96 136.32 33.21" fill="#ffed00"/><polygon points="140.48 40.55 139.45 39.79 138.41 40.55 138.81 39.33 137.76 38.57 139.05 38.57 139.45 37.33 139.84 38.57 141.14 38.57 140.09 39.33 140.48 40.55" fill="#ffed00"/><polygon points="140.09 28.62 140.48 29.84 139.45 29.08 138.41 29.84 138.81 28.62 137.76 27.86 139.05 27.86 139.45 26.62 139.84 27.86 141.14 27.86 140.09 28.62" fill="#ffed00"/><polygon points="142.97 23.94 143.36 22.7 143.76 23.93 145.06 23.93 144.01 24.69 144.4 25.91 143.37 25.15 142.33 25.91 142.72 24.69 141.67 23.93 142.97 23.94" fill="#ffed00"/><polygon points="144.41 44.47 143.37 43.72 142.34 44.47 142.73 43.25 141.68 42.5 142.98 42.5 143.37 41.26 143.77 42.5 145.06 42.5 144.01 43.25 144.41 44.47" fill="#ffed00"/><polygon points="149.76 45.89 148.72 45.14 147.69 45.89 148.08 44.67 147.03 43.92 148.32 43.92 148.72 42.68 149.12 43.92 150.41 43.92 149.36 44.67 149.76 45.89" fill="#ffed00"/><polygon points="155.1 44.47 154.07 43.72 153.03 44.47 153.43 43.25 152.38 42.5 153.67 42.5 154.07 41.26 154.46 42.5 155.76 42.5 154.71 43.25 155.1 44.47" fill="#ffed00"/><polygon points="154.72 24.69 155.12 25.91 154.08 25.15 153.05 25.91 153.44 24.69 152.39 23.93 153.69 23.94 154.08 22.7 154.48 23.93 155.77 23.93 154.72 24.69" fill="#ffed00"/><polygon points="159.03 40.55 157.99 39.79 156.96 40.55 157.35 39.33 156.3 38.57 157.6 38.57 157.99 37.33 158.39 38.57 159.68 38.57 158.63 39.33 159.03 40.55" fill="#ffed00"/><polygon points="160.45 35.17 159.41 34.41 158.38 35.17 158.77 33.95 157.72 33.19 159.02 33.2 159.41 31.96 159.81 33.19 161.11 33.19 160.05 33.95 160.45 35.17" fill="#ffed00"/><path d="m188.01,28l1.58.5c-.24.88-.65,1.54-1.21,1.97-.56.43-1.28.64-2.15.64-1.07,0-1.96-.37-2.65-1.1-.69-.73-1.04-1.74-1.04-3.01,0-1.35.35-2.39,1.04-3.13.69-.74,1.61-1.12,2.74-1.12.99,0,1.79.29,2.41.88.37.35.64.84.83,1.49l-1.62.39c-.1-.42-.3-.75-.6-.99-.3-.24-.67-.36-1.11-.36-.6,0-1.08.22-1.46.65s-.56,1.13-.56,2.09c0,1.02.18,1.75.55,2.18.37.43.85.65,1.43.65.43,0,.81-.14,1.12-.41.31-.28.54-.71.67-1.3" fill="#134094"/><path d="m192.21,28.05c0,.58.14,1.03.41,1.33.28.31.62.46,1.02.46s.74-.15,1.02-.46c.27-.31.41-.76.41-1.35s-.14-1.01-.41-1.32c-.27-.31-.61-.46-1.02-.46s-.74.15-1.02.46c-.28.31-.41.75-.41,1.33m-1.59-.08c0-.51.13-1.01.38-1.49.25-.48.61-.85,1.08-1.1.47-.25.98-.38,1.56-.38.88,0,1.61.29,2.18.86.57.58.85,1.3.85,2.18s-.29,1.62-.86,2.2c-.57.58-1.29.88-2.16.88-.54,0-1.05-.12-1.54-.36-.49-.24-.86-.6-1.11-1.07-.25-.47-.38-1.04-.38-1.71" fill="#134094"/><rect x="197.7" y="27.27" width="3.04" height="1.55" fill="#134094"/><path d="m200.96,25.12h.86v-.44c0-.49.05-.86.16-1.1.1-.24.3-.44.58-.59.28-.15.64-.23,1.07-.23s.87.07,1.3.2l-.21,1.08c-.25-.06-.48-.09-.71-.09s-.38.05-.48.16c-.1.1-.15.31-.15.6v.41h1.16v1.22h-1.16v4.64h-1.55v-4.64h-.86v-1.22Z" fill="#134094"/><path d="m209.25,30.98v-.88c-.21.31-.49.56-.84.74-.35.18-.71.27-1.1.27s-.75-.09-1.06-.26c-.31-.17-.54-.42-.68-.73-.14-.31-.21-.75-.21-1.3v-3.71h1.55v2.69c0,.82.03,1.33.09,1.51.06.18.16.33.31.44.15.11.34.16.57.16.26,0,.5-.07.71-.22.21-.15.35-.33.43-.54.08-.21.12-.74.12-1.58v-2.47h1.55v5.86h-1.44Z" fill="#134094"/><path d="m217.62,30.98h-1.55v-2.99c0-.63-.03-1.04-.1-1.23-.07-.18-.17-.33-.32-.43-.15-.1-.33-.15-.54-.15-.27,0-.51.07-.72.22-.21.15-.36.34-.44.58-.08.24-.12.69-.12,1.35v2.65h-1.55v-5.86h1.44v.86c.51-.66,1.15-.99,1.93-.99.34,0,.65.06.94.18.28.12.5.28.64.47.15.19.25.41.3.65.06.24.09.59.09,1.04v3.64Z" fill="#134094"/><path d="m220.43,27.92c0,.62.09,1.08.26,1.36.25.4.6.61,1.05.61.36,0,.66-.15.91-.45.25-.3.38-.76.38-1.36,0-.67-.12-1.16-.36-1.45-.24-.3-.55-.44-.93-.44s-.68.15-.92.44-.37.73-.37,1.31m4.13,3.06h-1.44v-.86c-.24.33-.52.58-.85.75s-.65.25-.98.25c-.67,0-1.25-.27-1.73-.81s-.72-1.3-.72-2.27.23-1.75.7-2.26c.47-.52,1.06-.78,1.77-.78.65,0,1.22.27,1.7.82v-2.91h1.55v8.08Z" fill="#134094"/><path d="m229.57,27.55c-.01-.45-.13-.79-.35-1.02-.22-.23-.49-.35-.81-.35-.34,0-.62.12-.84.37-.22.25-.33.58-.33,1h2.32Zm-.09,1.57l1.54.26c-.2.57-.51,1-.94,1.29-.43.3-.96.44-1.61.44-1.02,0-1.77-.33-2.26-1-.39-.53-.58-1.21-.58-2.02,0-.97.25-1.73.76-2.28.51-.55,1.15-.82,1.92-.82.87,0,1.56.29,2.06.86.5.58.74,1.46.72,2.64h-3.88c.01.46.14.82.38,1.07.24.25.54.38.89.38.24,0,.45-.07.61-.2.17-.13.29-.35.38-.64" fill="#134094"/><path d="m233.61,27.92c0,.62.09,1.08.26,1.36.25.4.6.61,1.05.61.36,0,.66-.15.91-.45.25-.3.38-.76.38-1.36,0-.67-.12-1.16-.36-1.45-.24-.3-.55-.44-.93-.44s-.68.15-.92.44-.37.73-.37,1.31m4.13,3.06h-1.44v-.86c-.24.33-.52.58-.85.75s-.65.25-.99.25c-.67,0-1.25-.27-1.73-.81-.48-.54-.72-1.3-.72-2.27s.23-1.75.7-2.26c.47-.52,1.06-.78,1.77-.78.65,0,1.22.27,1.7.82v-2.91h1.55v8.08Z" fill="#134094"/><path d="m243.88,27.92c0,.61.1,1.06.29,1.35.27.41.62.62,1.07.62.34,0,.63-.15.88-.44s.36-.75.36-1.38c0-.67-.12-1.15-.36-1.45-.24-.3-.55-.44-.93-.44s-.68.14-.93.43c-.25.29-.37.73-.37,1.32m-1.54,3.06v-8.08h1.55v2.91c.48-.54,1.04-.82,1.7-.82.71,0,1.3.26,1.77.78.47.52.7,1.26.7,2.22s-.24,1.77-.71,2.31c-.48.54-1.05.81-1.74.81-.33,0-.66-.08-.99-.25-.32-.17-.6-.41-.84-.74v.86h-1.44Z" fill="#134094"/><path d="m248.57,25.12h1.65l1.4,4.16,1.37-4.16h1.6l-2.07,5.64-.37,1.02c-.14.34-.27.6-.39.78-.12.18-.26.33-.42.44-.16.11-.36.2-.59.26-.23.06-.5.09-.79.09s-.59-.03-.88-.09l-.14-1.21c.24.05.46.07.66.07.36,0,.63-.11.8-.32.17-.21.31-.48.4-.81l-2.23-5.87Z" fill="#134094"/><path d="m185.85,38.67v1.24h-1.06v2.36c0,.48.01.76.03.83l.14.2c.07.05.16.08.26.08.14,0,.35-.05.62-.15l.13,1.2c-.36.16-.77.23-1.22.23-.28,0-.53-.05-.76-.14-.22-.09-.39-.21-.49-.36-.1-.15-.18-.35-.22-.6-.03-.18-.05-.54-.05-1.09v-2.55h-.71v-1.24h.71v-1.16l1.55-.9v2.07h1.06Z" fill="#134094"/><path d="m188.47,36.44v2.97c.5-.58,1.1-.88,1.79-.88.36,0,.68.07.96.2.29.13.5.3.65.51.15.2.24.43.3.68.05.25.08.64.08,1.16v3.44h-1.55v-3.09c0-.61-.03-1-.09-1.17-.06-.17-.16-.3-.31-.39-.15-.1-.34-.15-.56-.15-.26,0-.49.06-.69.19s-.35.31-.44.56c-.09.25-.14.62-.14,1.12v2.93h-1.55v-8.08h1.55Z" fill="#134094"/><path d="m197.3,41.1c-.01-.45-.13-.79-.35-1.02-.22-.23-.49-.35-.8-.35-.34,0-.62.12-.84.37-.22.25-.33.58-.33,1h2.32Zm-.09,1.57l1.54.26c-.2.57-.51,1-.94,1.29-.43.3-.96.44-1.61.44-1.02,0-1.77-.33-2.26-1-.39-.53-.58-1.21-.58-2.02,0-.97.25-1.73.76-2.28.51-.55,1.15-.82,1.92-.82.87,0,1.56.29,2.06.86.5.58.74,1.46.72,2.64h-3.88c.01.46.14.82.38,1.07.24.25.54.38.89.38.24,0,.45-.07.61-.2.17-.13.29-.35.38-.64" fill="#134094"/><polygon points="203.25 44.53 203.25 36.44 209.24 36.44 209.24 37.81 204.88 37.81 204.88 39.6 208.94 39.6 208.94 40.96 204.88 40.96 204.88 43.16 209.4 43.16 209.4 44.53 203.25 44.53" fill="#134094"/><path d="m214.62,44.53v-.88c-.21.31-.49.56-.84.74-.35.18-.71.27-1.1.27s-.75-.09-1.06-.26c-.31-.17-.54-.42-.68-.73-.14-.31-.21-.74-.21-1.29v-3.71h1.55v2.69c0,.82.03,1.33.09,1.51.06.18.16.33.31.44.15.11.34.16.57.16.26,0,.5-.07.71-.22.21-.15.35-.33.43-.54.08-.22.12-.74.12-1.58v-2.47h1.55v5.86h-1.44Z" fill="#134094"/><path d="m219.15,44.53h-1.55v-5.86h1.44v.83c.25-.39.47-.65.66-.78.2-.12.42-.19.67-.19.35,0,.69.1,1.02.29l-.48,1.35c-.26-.17-.5-.25-.73-.25s-.4.06-.55.18c-.15.12-.27.33-.35.65-.09.31-.13.97-.13,1.96v1.81Z" fill="#134094"/><path d="m223.29,41.6c0,.58.14,1.03.41,1.33.28.31.62.46,1.02.46s.74-.15,1.02-.46c.27-.31.41-.76.41-1.35s-.14-1.01-.41-1.32c-.27-.31-.61-.46-1.02-.46s-.74.15-1.02.46c-.28.31-.41.75-.41,1.33m-1.59-.08c0-.51.13-1.01.38-1.49.25-.48.61-.85,1.08-1.1.47-.25.98-.38,1.56-.38.88,0,1.61.29,2.18.86.57.58.85,1.3.85,2.18s-.29,1.62-.86,2.2c-.57.58-1.29.87-2.16.87-.54,0-1.05-.12-1.54-.36-.49-.24-.86-.6-1.11-1.07-.25-.47-.38-1.04-.38-1.71" fill="#134094"/><path d="m230.45,41.5c0,.66.13,1.14.39,1.46.26.31.58.47.95.47s.66-.14.9-.43c.24-.29.36-.76.36-1.42,0-.61-.12-1.07-.37-1.37-.25-.3-.55-.45-.92-.45s-.69.15-.94.44-.38.72-.38,1.3m-1.53-2.83h1.44v.86c.19-.29.44-.53.76-.72.32-.18.68-.28,1.07-.28.68,0,1.26.27,1.73.8.47.53.71,1.28.71,2.23s-.24,1.74-.72,2.28c-.48.54-1.06.81-1.74.81-.32,0-.62-.07-.88-.19-.26-.13-.54-.35-.83-.66v2.95h-1.55v-8.08Z" fill="#134094"/><path d="m239.34,41.1c-.01-.45-.13-.79-.35-1.02-.22-.23-.49-.35-.81-.35-.34,0-.62.12-.84.37-.22.25-.33.58-.33,1h2.32Zm-.09,1.57l1.54.26c-.2.57-.51,1-.94,1.29-.43.3-.96.44-1.61.44-1.02,0-1.77-.33-2.26-1-.38-.53-.58-1.21-.58-2.02,0-.97.25-1.73.76-2.28.51-.55,1.15-.82,1.92-.82.87,0,1.56.29,2.06.86.5.58.74,1.46.72,2.64h-3.88c.01.46.14.82.38,1.07.24.25.54.38.89.38.24,0,.45-.07.61-.2.17-.13.29-.35.38-.64" fill="#134094"/><path d="m245.37,41.71c-.2.07-.51.14-.94.24-.43.09-.71.18-.84.27-.2.14-.3.32-.3.55s.08.4.24.56c.16.16.37.24.62.24.28,0,.55-.09.8-.28.19-.14.31-.31.37-.51.04-.13.06-.38.06-.75v-.31Zm-2.07-1.26l-1.41-.25c.16-.57.43-.99.82-1.26.39-.27.96-.41,1.72-.41.69,0,1.21.08,1.54.25.34.16.58.37.71.62.14.25.21.71.21,1.39l-.02,1.81c0,.51.02.89.07,1.14.05.25.14.51.28.79h-1.53c-.04-.1-.09-.25-.15-.46-.02-.09-.04-.15-.05-.18-.26.26-.55.45-.85.58-.3.13-.62.19-.96.19-.6,0-1.08-.16-1.43-.49-.35-.33-.52-.74-.52-1.24,0-.33.08-.63.24-.89.16-.26.38-.46.66-.6.28-.14.69-.26,1.23-.36.73-.14,1.23-.26,1.51-.38v-.15c0-.3-.07-.51-.22-.64-.15-.13-.43-.19-.83-.19-.28,0-.49.05-.65.16-.15.11-.28.3-.37.57" fill="#134094"/><path d="m253.74,44.53h-1.55v-2.99c0-.63-.03-1.04-.1-1.23-.07-.18-.17-.33-.32-.43-.15-.1-.33-.15-.54-.15-.27,0-.51.07-.72.22-.21.15-.36.34-.44.58-.08.24-.12.69-.12,1.35v2.65h-1.55v-5.86h1.44v.86c.51-.66,1.15-.99,1.93-.99.34,0,.65.06.94.18.28.12.5.28.64.47.15.19.25.41.3.65.06.24.09.59.09,1.04v3.64Z" fill="#134094"/><path d="m258.45,36.44h1.63v4.38c0,.69.02,1.14.06,1.35.07.33.24.6.5.8.26.2.62.3,1.08.3s.81-.1,1.05-.28c.24-.19.38-.42.42-.7s.07-.73.07-1.37v-4.47h1.63v4.25c0,.97-.04,1.66-.13,2.06-.09.4-.25.74-.49,1.01-.24.28-.55.5-.95.66-.4.16-.91.25-1.55.25-.77,0-1.36-.09-1.76-.27-.4-.18-.71-.41-.95-.69-.23-.28-.38-.58-.46-.9-.11-.46-.16-1.15-.16-2.05v-4.31Z" fill="#134094"/><path d="m271.93,44.53h-1.55v-2.99c0-.63-.03-1.04-.1-1.23-.07-.18-.17-.33-.32-.43-.15-.1-.33-.15-.54-.15-.27,0-.51.07-.72.22-.21.15-.36.34-.44.58-.08.24-.12.69-.12,1.35v2.65h-1.55v-5.86h1.44v.86c.51-.66,1.15-.99,1.93-.99.34,0,.65.06.94.18.28.12.5.28.64.47.15.19.25.41.3.65.06.24.09.59.09,1.04v3.64Z" fill="#134094"/><path d="m273.5,38.67h1.55v5.86h-1.55v-5.86Zm0-2.23h1.55v1.43h-1.55v-1.43Z" fill="#134094"/><path d="m277.87,41.6c0,.58.14,1.03.41,1.33.28.31.62.46,1.02.46s.74-.15,1.02-.46c.27-.31.41-.76.41-1.35s-.14-1.01-.41-1.32c-.27-.31-.61-.46-1.02-.46s-.74.15-1.02.46c-.27.31-.41.75-.41,1.33m-1.59-.08c0-.51.13-1.01.38-1.49.25-.48.61-.85,1.08-1.1s.98-.38,1.56-.38c.89,0,1.61.29,2.18.86.57.58.85,1.3.85,2.18s-.29,1.62-.86,2.2c-.57.58-1.29.87-2.16.87-.54,0-1.05-.12-1.54-.36-.49-.24-.86-.6-1.11-1.07-.25-.47-.38-1.04-.38-1.71" fill="#134094"/><path d="m288.86,44.53h-1.55v-2.99c0-.63-.03-1.04-.1-1.23-.07-.18-.17-.33-.32-.43-.15-.1-.33-.15-.54-.15-.27,0-.51.07-.72.22-.21.15-.36.34-.44.58-.08.24-.12.69-.12,1.35v2.65h-1.55v-5.86h1.44v.86c.51-.66,1.15-.99,1.93-.99.34,0,.65.06.94.18.28.12.5.28.64.47.15.19.25.41.3.65.06.24.09.59.09,1.04v3.64Z" fill="#134094"/><path d="m86.05,23.75c1.3,0,2.17.82,2.5,2.09,1.15.11,2.29.22,3.41.34-.47-2.88-2.37-5.25-5.91-5.25-2.83,0-4.98,1.8-5.78,4.28,1.14.07,2.26.14,3.38.22.44-1.04,1.26-1.68,2.41-1.68" fill="#a3acd8"/><path d="m79.92,27.42c0,3.79,2.75,6.4,6.47,6.4,2.24,0,3.9-.88,5.06-2.31l-2.01-1.78c-.97.9-1.83,1.27-3.01,1.27-1.57,0-2.68-.83-3.03-2.43h8.62c.02-.32.05-.65.05-.92,0-.5-.04-1-.12-1.48-1.12-.12-2.26-.23-3.41-.34.05.17.08.36.11.55h-5.29c.06-.35.15-.66.27-.95-1.11-.08-2.24-.15-3.38-.22-.22.68-.34,1.41-.34,2.17v.05Z" fill="#134094"/><path d="m19.88,17.37h-3.56v10.94c1.16-.22,2.34-.43,3.56-.63v-10.31Z" fill="#a3acd8"/><path d="m41.64,24.17h2.91v-3h-2.91v-3.17h-3.51v3.17h-1.48v3h1.48v1.36c1.16-.09,2.33-.17,3.51-.25v-1.11Z" fill="#a3acd8"/><path d="m52.67,23.75c.86,0,1.53.36,1.99.98,1.17-.03,2.35-.04,3.53-.06-.82-2.16-2.61-3.74-5.51-3.74-2.74,0-4.85,1.69-5.71,4.05,1.2-.06,2.41-.1,3.62-.14.47-.69,1.18-1.09,2.09-1.09" fill="#a3acd8"/><path d="m67.58,24.71c.32-.07.65-.11,1.01-.11h.18v-3.68c-2.08-.09-3.24,1.02-3.95,2.73v-2.5h-3.51v3.49h.19c2.04,0,4.07.02,6.07.06" fill="#a3acd8"/><path d="m78.26,24.6h.18v-3.68c-2.08-.09-3.24,1.02-3.95,2.73v-2.5h-3.51v3.63c1.83.05,3.64.12,5.42.21.53-.26,1.15-.39,1.86-.39" fill="#a3acd8"/><path d="m97.19,26.75v-.05c0-1.69,1.29-2.87,3-2.87s3.03,1.18,3.03,2.87v.05c0,.33-.05.63-.14.91,1.23.21,2.44.42,3.61.64v-7.15h-3.51v1.62c-.95-1.04-2.08-1.85-4-1.85-2.75,0-5.33,1.95-5.49,5.44,1.18.14,2.35.28,3.5.43v-.04Z" fill="#a3acd8"/><path d="m27.99,24.19c.23-.11.75-.22,1-.22s.77.11,1,.22c.89.43,1.3,1.06,1.41,1.95,1.11-.12,2.24-.23,3.39-.33-.39-1.8-1.47-3.32-3.14-4.17-.77-.39-1.65-.71-2.66-.71s-1.89.32-2.66.71c-2.08,1.06-3.24,3.16-3.3,5.55,1.15-.17,2.32-.33,3.51-.48,0-1.2.38-2,1.45-2.51" fill="#a3acd8"/><path d="m19.88,33.55v-5.87c-1.21.2-2.4.41-3.56.63v5.24h3.56Z" fill="#134094"/><path d="m41.74,33.76c1.18,0,2.03-.28,2.77-.72v-2.82c-.51.28-1.09.44-1.73.44-.79,0-1.13-.39-1.13-1.2v-4.18c-1.18.08-2.35.16-3.51.25v4.51c0,2.86,1.46,3.72,3.61,3.72" fill="#134094"/><path d="m46.54,27.42c0,3.79,2.75,6.4,6.47,6.4,2.24,0,3.91-.88,5.06-2.31l-2.01-1.78c-.97.9-1.83,1.27-3,1.27-1.57,0-2.68-.83-3.03-2.43h8.62c.02-.32.05-.65.05-.92,0-1.05-.17-2.07-.52-2.99-1.18.01-2.36.03-3.53.06.32.44.54,1,.62,1.66h-5.29c.1-.6.31-1.13.6-1.55-1.22.04-2.42.09-3.62.14-.27.74-.42,1.55-.42,2.4v.05Z" fill="#134094"/><path d="m64.83,33.55v-4.58c0-2.5,1.03-3.89,2.75-4.26-2.01-.04-4.03-.06-6.07-.06h-.19v8.9h3.51Z" fill="#134094"/><path d="m74.49,33.55v-4.58c0-2.06.7-3.37,1.91-3.97-1.79-.08-3.6-.15-5.42-.21v8.76h3.51Z" fill="#134094"/><path d="m93.68,26.75c0,3.68,2.61,5.78,5.5,5.78,1.87,0,3.01-.76,4.04-2.01v.6c0,2.22-1.13,3.38-3.53,3.38-1.64,0-2.91-.42-4.18-1.13l-1.2,2.64c1.57.83,3.47,1.29,5.48,1.29,2.4,0,4.18-.51,5.34-1.66,1.04-1.04,1.57-2.66,1.57-4.88v-2.45c-1.17-.22-2.38-.43-3.61-.64-.38,1.18-1.51,1.95-2.89,1.95-1.69,0-2.98-1.14-3-2.82-1.15-.15-2.32-.3-3.5-.43,0,.11-.02.22-.02.34v.05Z" fill="#134094"/><path d="m31.45,26.73v6.81h3.51v-6.17c0-.54-.06-1.06-.17-1.57-1.14.1-2.27.21-3.38.33.02.19.04.38.04.6" fill="#134094"/><path d="m23.03,27.42v6.12h3.51v-6.84c-1.19.15-2.36.31-3.51.48v.19s0,.05,0,.05Z" fill="#134094"/><path d="m103.17,43.27c.25-.24.54-.36.88-.36.68,0,1.01.46,1.01,1.38v3.39h1.67v-3.65c0-.74-.21-1.34-.64-1.78-.43-.45-.96-.67-1.59-.67s-1.2.26-1.71.77v-.67h-1.67v6h1.67v-3.35c0-.47.12-.82.37-1.06m-3.81-.79c-.6-.6-1.36-.9-2.27-.9s-1.67.3-2.27.9c-.6.6-.9,1.33-.9,2.2s.3,1.6.9,2.2c.6.6,1.36.89,2.27.89s1.67-.3,2.27-.89c.6-.59.9-1.33.9-2.2s-.3-1.6-.9-2.2m-3.34,1c.28-.31.64-.47,1.07-.47s.79.16,1.07.47c.28.31.42.71.42,1.21s-.14.89-.42,1.2c-.28.31-.64.46-1.07.46s-.79-.15-1.07-.46c-.28-.31-.42-.71-.42-1.2s.14-.89.42-1.21m-3.79-2.27c.28,0,.51-.1.7-.28.19-.19.28-.42.28-.7s-.1-.51-.28-.7c-.19-.19-.42-.28-.7-.28s-.51.09-.7.28-.28.42-.28.7.09.51.28.7c.19.19.42.28.7.28m.84.48h-1.67v6h1.67v-6Zm-4.85,6.43c-.36.3-.84.46-1.45.46s-1.19-.21-1.74-.62l-.65,1.26c.35.27.76.47,1.22.62.46.14.92.22,1.37.22.84,0,1.57-.24,2.18-.74.31-.24.56-.56.75-.98.19-.42.28-.89.28-1.43v-5.23h-1.67v.79c-.47-.59-1.06-.88-1.77-.88s-1.35.28-1.9.85c-.55.57-.83,1.3-.83,2.18s.27,1.6.81,2.13c.54.53,1.2.8,1.99.8s1.44-.29,1.97-.88c0,.66-.18,1.15-.54,1.45m-.1-2.41c-.27.29-.6.43-1,.43s-.74-.15-1.02-.44c-.28-.29-.42-.68-.42-1.15s.14-.85.43-1.13c.29-.28.63-.41,1.02-.41s.72.14.99.41c.27.27.4.65.4,1.13s-.13.86-.4,1.15m-6.36-1.63h-2.63c.04-.34.2-.61.48-.81.27-.2.58-.3.91-.3s.61.1.84.29c.23.19.36.47.4.83m.27,1.72c-.38.4-.86.59-1.45.59-.36,0-.69-.1-.98-.31s-.46-.48-.51-.8h4.37v-.89c0-.87-.29-1.55-.86-2.05-.58-.5-1.28-.75-2.1-.75s-1.54.28-2.15.84c-.61.56-.91,1.31-.91,2.25s.3,1.7.89,2.26,1.35.84,2.26.84,1.7-.32,2.38-.96l-.94-1.02Zm-8.71-2.11h-1.27v-2.31h1.31c.56,0,.95.08,1.17.23.22.16.34.45.34.86s-.11.73-.32.92c-.22.19-.62.29-1.22.29m2.54-3.19c-.52-.41-1.38-.61-2.59-.61h-2.95v7.79h1.74v-2.49h1.2l1.73,2.49h2.14l-1.97-2.79c.99-.36,1.48-1.17,1.48-2.42,0-.91-.26-1.56-.77-1.97m-11.09,5.62c-.23.18-.49.27-.79.27s-.53-.06-.69-.17c-.16-.11-.24-.28-.24-.5,0-.42.33-.62,1-.62h1.05v.29c0,.31-.11.55-.34.73m2.02-2.27c0-.79-.23-1.36-.69-1.73-.46-.36-1.06-.55-1.78-.55-1.01,0-1.91.29-2.7.86l.75,1.08c.22-.17.5-.31.82-.43.32-.11.63-.17.92-.17.68,0,1.01.32,1.01.96v.03h-1.25c-.77,0-1.38.15-1.83.46-.45.31-.67.76-.67,1.38s.22,1.1.65,1.47c.43.37.96.55,1.6.55s1.17-.27,1.6-.81v.72h1.57v-3.82Zm-7.63.22h-2.63c.05-.34.21-.61.48-.81.28-.2.58-.3.91-.3s.61.1.84.29c.23.19.36.47.4.83m.27,1.72c-.38.4-.86.59-1.45.59-.37,0-.69-.1-.98-.31-.29-.21-.46-.48-.51-.8h4.37v-.89c0-.87-.29-1.55-.86-2.05s-1.28-.75-2.1-.75-1.54.28-2.15.84c-.61.56-.91,1.31-.91,2.25s.3,1.7.89,2.26c.59.56,1.35.84,2.26.84s1.7-.32,2.38-.96l-.94-1.02Zm-8.32-4.56c.72,0,1.42.26,2.1.77l.88-1.27c-.39-.33-.84-.58-1.36-.76-.52-.18-1.04-.27-1.56-.27-.79,0-1.46.2-1.99.6-.53.4-.8.97-.8,1.71s.21,1.28.63,1.63c.42.35,1.08.63,1.99.84.57.14.96.28,1.15.42.19.14.29.32.29.56s-.09.42-.27.56c-.18.14-.43.21-.75.21-.71,0-1.49-.37-2.33-1.1l-1.04,1.27c.99.91,2.1,1.37,3.33,1.37.86,0,1.54-.22,2.07-.65.52-.44.79-1,.79-1.7s-.2-1.23-.61-1.59c-.41-.36-.98-.64-1.72-.82-.74-.18-1.21-.34-1.42-.47-.2-.13-.31-.31-.31-.54s.08-.41.25-.55c.17-.14.39-.21.68-.21m-9.23,4.63c-.32-.28-.47-.68-.47-1.19s.16-.91.47-1.19c.32-.29.69-.43,1.13-.43.28,0,.55.06.83.19.28.13.51.31.71.53l.87-1.14c-.33-.35-.72-.61-1.17-.79-.44-.18-.88-.27-1.31-.27-.86,0-1.61.29-2.24.86-.63.58-.94,1.32-.94,2.24s.31,1.66.93,2.23c.62.57,1.38.85,2.28.85s1.74-.4,2.51-1.2l-.99-1.11c-.45.56-.95.84-1.5.84-.42,0-.79-.14-1.11-.42m-3.81-4.66c.27,0,.51-.1.7-.28.19-.19.28-.42.28-.7s-.1-.51-.28-.7c-.19-.19-.42-.28-.7-.28s-.51.09-.7.28c-.19.19-.28.42-.28.7s.1.51.28.7c.19.19.42.28.7.28m.84.48h-1.67v6h1.67v-6Zm-2.77,1.2v-1.2h-1.45v-1.79h-1.68v1.79h-.7v1.2h.7v2.77c0,.65.2,1.17.6,1.55.4.38.88.57,1.46.57s1.12-.24,1.64-.71l-.62-1.17c-.22.28-.48.42-.79.42-.16,0-.31-.06-.42-.19-.12-.13-.18-.31-.18-.54v-2.69h1.45Zm-4.64-3.48h-1.67v8.27h1.67v-8.27Zm-4.88,6.72c-.23.18-.49.27-.79.27s-.53-.06-.69-.17c-.16-.11-.24-.28-.24-.5,0-.42.33-.62,1-.62h1.05v.29c0,.31-.11.55-.34.73m2.02-2.27c0-.79-.23-1.36-.69-1.73-.46-.36-1.06-.55-1.78-.55-1.01,0-1.91.29-2.7.86l.75,1.08c.22-.17.5-.31.82-.43.32-.11.63-.17.92-.17.68,0,1.01.32,1.01.96v.03h-1.25c-.77,0-1.38.15-1.83.46-.45.31-.67.76-.67,1.38s.22,1.1.65,1.47c.43.37.97.55,1.6.55s1.17-.27,1.6-.81v.72h1.57v-3.82Zm-10.56.56h1.03c.58,0,1,.06,1.27.17.26.12.39.35.39.71s-.12.6-.37.72-.62.18-1.12.18h-1.19v-1.79Zm0-3.06h.84c.51,0,.88.06,1.09.17.22.11.32.34.32.69s-.12.57-.35.67c-.23.11-.59.16-1.08.16h-.82v-1.68Zm3.92,5.6c.37-.42.56-.9.56-1.44,0-.49-.14-.9-.43-1.23-.29-.33-.67-.55-1.15-.65.13-.06.23-.1.28-.13.05-.03.15-.09.28-.19.39-.3.59-.75.59-1.36,0-.51-.17-.96-.52-1.36-.19-.22-.48-.39-.86-.51-.38-.13-.84-.19-1.37-.19h-3.03v7.79h3.41c1.07,0,1.82-.24,2.25-.72" fill="#134094"/></g></svg>